<?xml version="1.0" encoding="UTF-8"?><svg id="Layer_1" xmlns="http://www.w3.org/2000/svg" viewBox="0 0 396.15 659.76"><rect x="78.62" y="122.7" width="239.1" height="186.17" fill="#302f44"/><path d="m396.15,554.09c0-140.89-88.68-255.11-198.08-255.11S0,413.2,0,554.09s396.15,140.89,396.15,0Z" fill="#eae9ea"/><path d="m344.9,550.85c1.94-139.96-57.34-227.19-147.64-227.11-90.46.08-152.11,98.92-147.64,227.11,4.37,125.35,293.55,125.41,295.29,0Z" fill="#d4d2d3"/><rect x="102.91" y="314.44" width="189.17" height="24.85" rx="5.75" ry="5.75" fill="#444545" opacity=".36"/><polygon points="198.35 2.57 198.35 0 198.21 1.29 198.08 0 198.08 2.57 186.91 108.49 198.08 108.49 198.35 108.49 209.51 108.49 198.35 2.57" fill="#d4d2d3"/><path d="m66.26,244.89c-16.48,0-29.83-16.76-29.83-37.43s13.36-37.43,29.83-37.43,16.48,74.86,0,74.86Z" fill="#d4d2d3"/><path d="m288.11,98.51H108.23c-25.67,0-46.67,21-46.67,46.67v137.81c0,25.67,21,46.67,46.67,46.67h179.88c25.67,0,46.67-21,46.67-46.67v-137.81c0-25.67-21-46.67-46.67-46.67Zm21.53,176.59c0,13.14-10.75,23.89-23.89,23.89H110.58c-13.14,0-23.89-10.75-23.89-23.89v-122.01c0-13.14,10.75-23.89,23.89-23.89h175.17c13.14,0,23.89,10.75,23.89,23.89v122.01Z" fill="#eae9ea"/><path d="m330.08,244.89c16.48,0,29.83-16.76,29.83-37.43s-13.36-37.43-29.83-37.43-16.48,74.86,0,74.86Z" fill="#d4d2d3"/><path d="m108.23,98.51h179.88c25.67,0,46.67,21,46.67,46.67v137.81c0,25.67-21,46.67-46.67,46.67H108.23c-25.67,0-46.67-21-46.67-46.67v-137.81c0-25.67,21-46.67,46.67-46.67Zm-21.53,176.59c0,13.14,10.75,23.89,23.89,23.89h175.17c13.14,0,23.89-10.75,23.89-23.89v-122.01c0-13.14-10.75-23.89-23.89-23.89H110.58c-13.14,0-23.89,10.75-23.89,23.89v122.01Z" fill="#eae9ea"/><circle cx="198.08" cy="16.75" r="16.75" fill="#848484"/><path d="m223.08,209.68c0,24.67-9.15,38.29-25.23,38.29-14.18,0-23.78-13.28-24-37.28,0-24.34,10.49-37.73,25.23-37.73s24,13.62,24,36.73Zm-39.4,1.12c0,18.86,5.8,29.58,14.73,29.58,10.05,0,14.85-11.72,14.85-30.25s-4.58-29.58-14.74-29.58c-8.6,0-14.85,10.49-14.85,30.25Z" fill="#848484"/><path d="m157.23,226.98h7.18c1.65,0,2.98-1.34,2.98-2.98v-1.74c0-1.65-1.34-2.98-2.98-2.98h-7.18v-42.12c0-1.65-1.34-2.98-2.98-2.98h-6.07c-.97,0-1.89.48-2.44,1.27l-30.94,44.28c-.35.5-.54,1.1-.54,1.71v2.55c0,1.65,1.34,2.98,2.98,2.98h30.73v16.78c0,1.65,1.34,2.98,2.98,2.98h3.3c1.65,0,2.98-1.34,2.98-2.98v-16.78Zm-10.65-7.68h-19.73c-1.13,0-1.79-1.26-1.16-2.19l19.95-29.46s.65-1.19,1.83-.72c.52.26.51,1.23.52,1.52.05,5.86,0,30.82,0,30.82l-1.4.02Z" fill="#848484"/><path d="m271.75,226.98h7.18c1.65,0,2.98-1.34,2.98-2.98v-1.74c0-1.65-1.34-2.98-2.98-2.98h-7.18v-42.12c0-1.65-1.34-2.98-2.98-2.98h-6.07c-.97,0-1.89.48-2.44,1.27l-30.94,44.28c-.35.5-.54,1.1-.54,1.71v2.55c0,1.65,1.34,2.98,2.98,2.98h30.73v16.78c0,1.65,1.34,2.98,2.98,2.98h3.3c1.65,0,2.98-1.34,2.98-2.98v-16.78Zm-10.65-7.68h-19.73c-1.13,0-1.79-1.26-1.16-2.19l19.95-29.46s.65-1.19,1.83-.72c.52.26.51,1.23.52,1.52.05,5.86,0,30.82,0,30.82l-1.4.02Z" fill="#848484"/><rect x="198.77" y="260.82" width="60" height="5" rx="2.5" ry="2.5" fill="#848484"/></svg>