<?xml version="1.0" encoding="UTF-8"?><svg id="Layer_1" xmlns="http://www.w3.org/2000/svg" viewBox="0 0 396.15 659.76"><rect x="91.64" y="176.43" width="214.41" height="166.94" fill="#302f44"/><path d="m376.37,563.26c0-126.34-79.52-228.76-177.62-228.76S21.14,436.92,21.14,563.26s355.24,126.34,355.24,0Z" fill="#eae9ea"/><path d="m330.41,560.36c1.74-125.51-51.42-203.72-132.39-203.65-81.12.07-136.4,88.7-132.39,203.65,3.92,112.4,263.23,112.46,264.79,0Z" fill="#d4d2d3"/><rect x="113.42" y="348.36" width="169.63" height="22.28" rx="5.75" ry="5.75" fill="#444545" opacity=".36"/><path d="m80.55,285.99c-14.78,0-26.75-15.03-26.75-33.56s11.98-33.56,26.75-33.56,14.78,67.13,0,67.13Z" fill="#d4d2d3"/><path d="m279.49,154.74H118.19c-23.02,0-41.85,18.83-41.85,41.85v123.58c0,23.02,18.83,41.85,41.85,41.85h161.3c23.02,0,41.85-18.83,41.85-41.85v-123.58c0-23.02-18.83-41.85-41.85-41.85Zm19.31,158.35c0,11.78-9.64,21.42-21.42,21.42H120.3c-11.78,0-21.42-9.64-21.42-21.42v-109.41c0-11.78,9.64-21.42,21.42-21.42h157.08c11.78,0,21.42,9.64,21.42,21.42v109.41Z" fill="#eae9ea"/><path d="m317.12,285.99c14.78,0,26.75-15.03,26.75-33.56s-11.98-33.56-26.75-33.56-14.78,67.13,0,67.13Z" fill="#d4d2d3"/><path d="m118.19,154.74h161.3c23.02,0,41.85,18.83,41.85,41.85v123.58c0,23.02-18.83,41.85-41.85,41.85H118.19c-23.02,0-41.85-18.83-41.85-41.85v-123.58c0-23.02,18.83-41.85,41.85-41.85Zm-19.31,158.35c0,11.78,9.64,21.42,21.42,21.42h157.08c11.78,0,21.42-9.64,21.42-21.42v-109.41c0-11.78-9.64-21.42-21.42-21.42H120.3c-11.78,0-21.42,9.64-21.42,21.42v109.41Z" fill="#eae9ea"/><circle cx="142.16" cy="241.76" r="13.99" fill="#60abde"/><rect x="235.83" y="239.26" width="40" height="5" rx="2.5" ry="2.5" fill="#60abde"/><path d="m248.11,279.21c0,11.81-21.99,21.38-49.11,21.38s-49.11-9.57-49.11-21.38,98.23-11.81,98.23,0Z" fill="#60abde"/><path d="m351.7,95.24c-1.97,6.97-6.19,13.03-10.11,19.19-5.63,8.84-11.91,17.37-16.49,26.71-.54,1.11-1.01,2.24-1.54,3.36-1.09,2.32-1.61,4.45-.66,7.14,1.6,4.52.75,9.1-2.08,13.23-2.22,3.25-5.67,4.51-9.85,3.77-15.73-2.78-31.66-3.9-47.64-4.81-15.01-.85-30.03-1.15-45.05-1.22-13.36-.05-26.74.12-40.1.73-9.33.43-18.68.73-28.01,1.18-14.26.69-28.48,1.78-42.67,3.18-5.09.5-10.15,1.17-15.24,1.63-1.5.14-2.47.64-3.43,1.64-12.29,12.8-26.53,23.55-43.31,31.59-5.31,2.54-10.9,4.59-16.91,5.48-12.98,1.92-21.4-2.52-25.77-13.43-3.17-7.93-3.13-16.14-2.52-24.35.37-4.96,1.09-9.94,2.59-14.72,1.41-4.48,3.42-8.82,5.33-13.17,6.61-15.11,16.79-28.33,27.85-41.15,28.49-33.02,65.59-56.28,107.57-74.1,14.34-6.09,29.03-11.44,43.9-16.46,4.83-1.63,9.8-2.94,14.56-4.82,3.29-1.3,7.24-1.3,10.87-2.04,17.43-3.59,34.21-.67,50.55,4.61,27.75,8.98,51.7,23.22,72.89,41.27,8.18,6.97,11.61,15.81,14.13,25.13.48,1.79.78,3.62,1.16,5.44.62.91-.19,2.02.52,2.92v9.68c-.68.72.1,1.7-.54,2.43Z" fill="#521010"/><path d="m197.55,87.95c-10.46.55-20.63,2.55-30.67,5-20.84,5.08-40.37,12.93-59.25,22.1-3.06,1.49-4.85,4.12-6.9,6.47-11.12,12.82-20.65,26.59-30.8,39.99-7.37,9.73-15.33,19.07-24.52,27.56-1.81,1.67-4.22,2.8-5.57,4.87-.18.32-.36.63-.81.7.57-.01.85-.43,1.24-.69,4.04-1.25,7.08-3.82,10.34-6.09,5.33-3.71,10.1-7.97,14.76-12.31,1.31-1.23,2.66-2.04,4.62-2.23,3.17-.31,6.32-.82,9.53-1.26.02,1.04-.84,1.37-1.39,1.84-9.64,8.31-19.6,16.28-31.31,22.34-7.9,4.08-16.22,6.72-25.59,5.94-4.88-.41-8.42-2.43-10.52-6.38-2.37-4.47-3.06-9.26-3.38-14.09-1.37-20.36,6.21-38.55,18-55.58,23.1-33.35,53.91-59.86,92.17-79.7,23.35-12.11,47.79-22.17,73.28-30.26,8.84-2.81,17.74-5.52,27.01-7.03,11.59-1.89,22.99-.57,34.23,2.12,21,5.03,39.57,14.27,56.9,25.62,8.03,5.26,15.57,11.02,22.47,17.41,15.9,14.74,18.7,36.11,6.9,53.51-4.18,6.16-8.71,12.13-12.92,18.27-3.79,5.54-6.83,11.4-8.96,17.61-.46,1.34-1.02,2-2.86,1.72-16.53-2.48-33.2-3.81-49.93-4.83-25-1.52-50.01-1.66-75.03-1.11-21.62.48-43.19,1.66-64.72,3.58-12.01,1.07-23.99,2.32-35.94,3.83-.28-.84.46-1.24.84-1.71,4.47-5.51,9.11-10.92,13.43-16.52,5.73-7.41,13.46-12.54,22.44-16.58,17.13-7.71,35.11-13.33,53.61-17.79,8.28-2,16.61-3.83,24.92-5.73.76-.81,1.92-.51,3.05-.85-3,.57-5.86-.46-8.67.27Z" fill="#90191c"/><path d="m197.55,87.95c3.09-.73,6.24-.53,9.41-.38-1.19.57-2.41.99-3.78.97-1.74-1.19-3.77-.24-5.63-.59Z" fill="#1f0d0d"/><path d="m40.27,193.96c-.36,1.04-1.21,1.4-2.93,1.44,1.12-.65,1.81-1.05,2.49-1.45.15-.04.29-.04.43.01Z" fill="#6a1717"/></svg>