<?xml version="1.0" encoding="UTF-8"?><svg id="Layer_1" xmlns="http://www.w3.org/2000/svg" viewBox="0 0 396.15 659.76"><rect x="78.62" y="122.7" width="239.1" height="186.17" fill="#302f44"/><path d="m396.15,554.09c0-140.89-88.68-255.11-198.08-255.11S0,413.2,0,554.09s396.15,140.89,396.15,0Z" fill="#eae9ea"/><path d="m344.9,550.85c1.94-139.96-57.34-227.19-147.64-227.11-90.46.08-152.11,98.92-147.64,227.11,4.37,125.35,293.55,125.41,295.29,0Z" fill="#d4d2d3"/><rect x="102.91" y="314.44" width="189.17" height="24.85" rx="5.75" ry="5.75" fill="#444545" opacity=".36"/><path d="m66.26,244.89c-16.48,0-29.83-16.76-29.83-37.43s13.36-37.43,29.83-37.43,16.48,74.86,0,74.86Z" fill="#d4d2d3"/><path d="m288.11,98.51H108.23c-25.67,0-46.67,21-46.67,46.67v137.81c0,25.67,21,46.67,46.67,46.67h179.88c25.67,0,46.67-21,46.67-46.67v-137.81c0-25.67-21-46.67-46.67-46.67Zm21.53,176.59c0,13.14-10.75,23.89-23.89,23.89H110.58c-13.14,0-23.89-10.75-23.89-23.89v-122.01c0-13.14,10.75-23.89,23.89-23.89h175.17c13.14,0,23.89,10.75,23.89,23.89v122.01Z" fill="#eae9ea"/><path d="m330.08,244.89c16.48,0,29.83-16.76,29.83-37.43s-13.36-37.43-29.83-37.43-16.48,74.86,0,74.86Z" fill="#d4d2d3"/><path d="m108.23,98.51h179.88c25.67,0,46.67,21,46.67,46.67v137.81c0,25.67-21,46.67-46.67,46.67H108.23c-25.67,0-46.67-21-46.67-46.67v-137.81c0-25.67,21-46.67,46.67-46.67Zm-21.53,176.59c0,13.14,10.75,23.89,23.89,23.89h175.17c13.14,0,23.89-10.75,23.89-23.89v-122.01c0-13.14-10.75-23.89-23.89-23.89H110.58c-13.14,0-23.89,10.75-23.89,23.89v122.01Z" fill="#eae9ea"/><path d="m221.16,185.84c.85-.06,1.83.04,2.76.24,1.37.29,2.73.64,4.02,1.23,1.03.47,1.99,1.04,2.93,1.65.5.32.95.72,1.39,1.14.33.32.72.58,1.04.92.96,1.03,1.84,2.11,2.54,3.34.19.34.37.33.58-.02.28-.47.54-.94.87-1.38.35-.47.72-.9,1.11-1.34.77-.88,1.62-1.68,2.57-2.36.43-.31.86-.61,1.34-.86.35-.18.68-.47,1.05-.64.82-.38,1.64-.77,2.51-1.05.77-.25,1.55-.46,2.34-.63.32-.07.65-.11.97-.15,1.36-.15,2.73-.14,4.1,0,.76.08,1.51.28,2.26.46,1.96.48,3.76,1.31,5.41,2.45,1.47,1.01,2.76,2.2,3.86,3.61.6.77,1.14,1.57,1.61,2.41.35.64.64,1.32.92,2,.43,1.02.68,2.07.88,3.13.32,1.64.37,3.29.2,4.96-.15,1.46-.39,2.89-.83,4.29-.34,1.1-.77,2.17-1.25,3.22-.51,1.11-1.09,2.18-1.72,3.21-.68,1.1-1.42,2.17-2.2,3.2-1.33,1.78-2.76,3.47-4.26,5.1-.76.83-1.55,1.63-2.33,2.43-.43.45-.87.89-1.31,1.32-.41.41-.81.82-1.23,1.22-1.44,1.35-2.86,2.71-4.32,4.03-.78.71-1.61,1.37-2.41,2.06-.98.85-1.97,1.68-2.94,2.53-.8.71-1.65,1.37-2.44,2.08-.54.49-1.11.94-1.66,1.41-1.07.92-2.15,1.83-3.22,2.74-.16.14-.32.04-.43-.05-.68-.55-1.34-1.12-2.01-1.68-.77-.65-1.55-1.3-2.31-1.97-.51-.45-1.05-.88-1.55-1.33-.72-.65-1.48-1.25-2.21-1.88-1.25-1.07-2.5-2.16-3.74-3.24-1.12-.97-2.19-1.98-3.28-2.99-1.72-1.58-3.38-3.23-5.01-4.9-.85-.87-1.64-1.8-2.48-2.68-.93-.98-1.78-2.03-2.6-3.1-.7-.91-1.39-1.83-2.04-2.78-.83-1.22-1.62-2.47-2.28-3.78-.69-1.38-1.31-2.78-1.74-4.27-.45-1.54-.8-3.1-.82-4.72,0-.5-.13-1-.1-1.5.06-1.08.13-2.15.35-3.22.17-.84.43-1.66.71-2.47.44-1.32,1.07-2.52,1.82-3.68.78-1.2,1.72-2.26,2.77-3.23.79-.73,1.63-1.37,2.55-1.92.94-.57,1.91-1.07,2.93-1.48.89-.36,1.82-.57,2.75-.78,1.15-.26,2.31-.36,3.61-.34Z" fill="#cc222a"/><path d="m143.46,185.84c.85-.06,1.83.04,2.76.24,1.37.29,2.73.64,4.02,1.23,1.03.47,1.99,1.04,2.93,1.65.5.32.95.72,1.39,1.14.33.32.72.58,1.04.92.96,1.03,1.84,2.11,2.54,3.34.19.34.37.33.58-.02.28-.47.54-.94.87-1.38.35-.47.72-.9,1.11-1.34.77-.88,1.62-1.68,2.57-2.36.43-.31.86-.61,1.34-.86.35-.18.68-.47,1.05-.64.82-.38,1.64-.77,2.51-1.05.77-.25,1.55-.46,2.34-.63.32-.07.65-.11.97-.15,1.36-.15,2.73-.14,4.1,0,.76.08,1.51.28,2.26.46,1.96.48,3.76,1.31,5.41,2.45,1.47,1.01,2.76,2.2,3.86,3.61.6.77,1.14,1.57,1.61,2.41.35.64.64,1.32.92,2,.43,1.02.68,2.07.88,3.13.32,1.64.37,3.29.2,4.96-.15,1.46-.39,2.89-.83,4.29-.34,1.1-.77,2.17-1.25,3.22-.51,1.11-1.09,2.18-1.72,3.21-.68,1.1-1.42,2.17-2.2,3.2-1.33,1.78-2.76,3.47-4.26,5.1-.76.83-1.55,1.63-2.33,2.43-.43.45-.87.89-1.31,1.32-.41.41-.81.82-1.23,1.22-1.44,1.35-2.86,2.71-4.32,4.03-.78.71-1.61,1.37-2.41,2.06-.98.85-1.97,1.68-2.94,2.53-.8.71-1.65,1.37-2.44,2.08-.54.49-1.11.94-1.66,1.41-1.07.92-2.15,1.83-3.22,2.74-.16.14-.32.04-.43-.05-.68-.55-1.34-1.12-2.01-1.68-.77-.65-1.55-1.3-2.31-1.97-.51-.45-1.05-.88-1.55-1.33-.72-.65-1.48-1.25-2.21-1.88-1.25-1.07-2.5-2.16-3.74-3.24-1.12-.97-2.19-1.98-3.28-2.99-1.72-1.58-3.38-3.23-5.01-4.9-.85-.87-1.64-1.8-2.48-2.68-.93-.98-1.78-2.03-2.6-3.1-.7-.91-1.39-1.83-2.04-2.78-.83-1.22-1.62-2.47-2.28-3.78-.69-1.38-1.31-2.78-1.74-4.27-.45-1.54-.8-3.1-.82-4.72,0-.5-.13-1-.1-1.5.06-1.08.13-2.15.35-3.22.17-.84.43-1.66.71-2.47.44-1.32,1.07-2.52,1.82-3.68.78-1.2,1.72-2.26,2.77-3.23.79-.73,1.63-1.37,2.55-1.92.94-.57,1.91-1.07,2.93-1.48.89-.36,1.82-.57,2.75-.78,1.15-.26,2.31-.36,3.61-.34Z" fill="#cc222a"/><polygon points="199.55 14.01 196.87 14.01 186.91 108.49 198.08 108.49 198.35 108.49 209.51 108.49 199.55 14.01" fill="#d4d2d3"/><circle cx="198.24" cy="16.53" r="16.75" fill="#cc222a"/></svg>