<?xml version="1.0" encoding="UTF-8"?><svg id="Layer_1" xmlns="http://www.w3.org/2000/svg" viewBox="0 0 396.15 659.76"><rect x="78.62" y="122.7" width="239.1" height="186.17" fill="#302f44"/><path d="m396.15,554.09c0-140.89-88.68-255.11-198.08-255.11S0,413.2,0,554.09s396.15,140.89,396.15,0Z" fill="#eae9ea"/><path d="m344.9,550.85c1.94-139.96-57.34-227.19-147.64-227.11-90.46.08-152.11,98.92-147.64,227.11,4.37,125.35,293.55,125.41,295.29,0Z" fill="#d4d2d3"/><path d="m190.87,344.4c.66-.83,1.54-1.01,2.52-1,3.42.03,6.84.02,10.25,0,.66,0,1.3.07,1.76.59.43.49.64.26.96-.11,4.24-4.87,8.99-9.04,14.37-12.39,4.62-2.87,9.66-4.51,14.74-6.04,4.45-1.34,8.95-2.41,13.46-3.45.54-.13.83-.12,1,.63,2.56,11.78,3.56,23.7,3.01,35.77-.33,7.2-.98,14.37-2.27,21.46-.1.53-.23.7-.74.62-9.9-1.49-19.63-3.69-28.52-8.85-5.75-3.34-10.56-7.98-14.9-13.2-.39-.47-.59-.67-1.05-.09-.38.48-.96.65-1.56.65-3.69,0-7.38,0-11.07,0-.63,0-1.25-.17-1.63-.69-.45-.62-.65-.3-.99.09-4.76,5.7-10.07,10.67-16.48,14.13-5.75,3.1-11.91,4.92-18.18,6.36-2.84.65-5.7,1.14-8.57,1.57-.61.09-.87,0-1-.75-.91-5.11-1.49-10.26-1.88-15.44-.46-6.09-.65-12.2-.37-18.31.37-7.93,1.38-15.76,3.06-23.49.11-.5.31-.63.75-.52,8.34,1.95,16.72,3.79,24.59,7.47,6.91,3.23,12.69,8.24,17.87,14.06.23.26.46.52.69.78.04.04.1.07.18.13Z" fill="#302f44"/><path d="m191.08,345.01c.64-.75,1.49-.91,2.45-.9,3.32.03,6.64.02,9.96,0,.64,0,1.27.07,1.71.54.42.44.62.23.94-.1,4.12-4.4,8.73-8.18,13.96-11.2,4.48-2.59,9.38-4.07,14.32-5.46,4.32-1.21,8.7-2.17,13.08-3.12.53-.11.81-.11.97.57,2.48,10.65,3.45,21.43,2.92,32.34-.32,6.51-.95,13-2.2,19.41-.09.48-.23.63-.72.56-9.62-1.34-19.07-3.33-27.71-8-5.59-3.02-10.26-7.22-14.47-11.94-.38-.43-.58-.61-1.02-.08-.37.43-.93.59-1.51.59-3.59,0-7.17,0-10.76,0-.62,0-1.21-.15-1.59-.63-.44-.56-.64-.28-.96.09-4.62,5.15-9.79,9.65-16.01,12.78-5.59,2.81-11.57,4.45-17.66,5.75-2.75.59-5.53,1.03-8.32,1.42-.6.08-.84,0-.97-.68-.88-4.62-1.45-9.28-1.83-13.96-.44-5.51-.63-11.03-.36-16.56.35-7.17,1.34-14.25,2.97-21.24.11-.46.3-.57.73-.47,8.1,1.76,16.25,3.42,23.89,6.75,6.71,2.92,12.33,7.45,17.36,12.72.22.23.44.47.67.7.04.04.09.06.17.11Zm-13.79-1.04c4.57,1.53,8.95,3.5,13.23,5.75.19-1.58.18-1.57-1.11-2.09-2.6-1.05-5.26-1.96-7.95-2.72-1.36-.39-2.72-.87-4.16-.93Zm41.89-.06c-.23.04-.45.08-.68.13-3.79.91-7.49,2.1-11.1,3.55q-1.38.55-1.22,2.13c4.23-2.23,8.56-4.17,13-5.81Zm-13.02,8.98c-.11,1.62-.1,1.62,1.27,2.17,2.61,1.05,5.28,1.93,7.97,2.73.56.17,1.13.31,1.7.44.53.12,1.05.4,1.63.26-4.29-1.57-8.46-3.4-12.57-5.6Zm-28.48,5.62c.43.1.71.06,1-.02,3.66-.92,7.24-2.11,10.75-3.48,1.33-.52,1.33-.55,1.05-2.08-4.08,2.18-8.29,4.04-12.8,5.58Z" fill="#60abde"/><rect x="102.91" y="314.44" width="189.17" height="24.85" rx="5.75" ry="5.75" fill="#444545" opacity=".36"/><polygon points="198.35 2.57 198.35 0 198.21 1.29 198.08 0 198.08 2.57 186.91 108.49 198.08 108.49 198.35 108.49 209.51 108.49 198.35 2.57" fill="#d4d2d3"/><path d="m66.26,244.89c-16.48,0-29.83-16.76-29.83-37.43s13.36-37.43,29.83-37.43,16.48,74.86,0,74.86Z" fill="#d4d2d3"/><path d="m288.11,98.51H108.23c-25.67,0-46.67,21-46.67,46.67v137.81c0,25.67,21,46.67,46.67,46.67h179.88c25.67,0,46.67-21,46.67-46.67v-137.81c0-25.67-21-46.67-46.67-46.67Zm21.53,176.59c0,13.14-10.75,23.89-23.89,23.89H110.58c-13.14,0-23.89-10.75-23.89-23.89v-122.01c0-13.14,10.75-23.89,23.89-23.89h175.17c13.14,0,23.89,10.75,23.89,23.89v122.01Z" fill="#eae9ea"/><path d="m330.08,244.89c16.48,0,29.83-16.76,29.83-37.43s-13.36-37.43-29.83-37.43-16.48,74.86,0,74.86Z" fill="#d4d2d3"/><path d="m108.23,98.51h179.88c25.67,0,46.67,21,46.67,46.67v137.81c0,25.67-21,46.67-46.67,46.67H108.23c-25.67,0-46.67-21-46.67-46.67v-137.81c0-25.67,21-46.67,46.67-46.67Zm-21.53,176.59c0,13.14,10.75,23.89,23.89,23.89h175.17c13.14,0,23.89-10.75,23.89-23.89v-122.01c0-13.14-10.75-23.89-23.89-23.89H110.58c-13.14,0-23.89,10.75-23.89,23.89v122.01Z" fill="#eae9ea"/><circle cx="134.96" cy="195.56" r="15.6" fill="#60abde"/><circle cx="261.73" cy="195.56" r="15.6" fill="#60abde"/><path d="m253.12,237.32c0,13.17-24.52,23.84-54.77,23.84s-54.77-10.68-54.77-23.84,109.54-13.17,109.54,0Z" fill="#60abde"/><circle cx="198.08" cy="16.75" r="16.75" fill="#60abde"/></svg>