<?xml version="1.0" encoding="UTF-8"?><svg id="Layer_1" xmlns="http://www.w3.org/2000/svg" viewBox="0 0 396.15 659.76"><rect x="78.62" y="122.7" width="239.1" height="186.17" fill="#302f44"/><path d="m396.15,554.09c0-140.89-88.68-255.11-198.08-255.11S0,413.2,0,554.09s396.15,140.89,396.15,0Z" fill="#eae9ea"/><path d="m344.9,550.85c1.94-139.96-57.34-227.19-147.64-227.11-90.46.08-152.11,98.92-147.64,227.11,4.37,125.35,293.55,125.41,295.29,0Z" fill="#d4d2d3"/><rect x="102.91" y="314.44" width="189.17" height="24.85" rx="5.75" ry="5.75" fill="#444545" opacity=".36"/><polygon points="198.35 2.57 198.35 0 198.21 1.29 198.08 0 198.08 2.57 186.91 108.49 198.08 108.49 198.35 108.49 209.51 108.49 198.35 2.57" fill="#d4d2d3"/><path d="m66.26,244.89c-16.48,0-29.83-16.76-29.83-37.43s13.36-37.43,29.83-37.43,16.48,74.86,0,74.86Z" fill="#d4d2d3"/><path d="m288.11,98.51H108.23c-25.67,0-46.67,21-46.67,46.67v137.81c0,25.67,21,46.67,46.67,46.67h179.88c25.67,0,46.67-21,46.67-46.67v-137.81c0-25.67-21-46.67-46.67-46.67Zm21.53,176.59c0,13.14-10.75,23.89-23.89,23.89H110.58c-13.14,0-23.89-10.75-23.89-23.89v-122.01c0-13.14,10.75-23.89,23.89-23.89h175.17c13.14,0,23.89,10.75,23.89,23.89v122.01Z" fill="#eae9ea"/><path d="m330.08,244.89c16.48,0,29.83-16.76,29.83-37.43s-13.36-37.43-29.83-37.43-16.48,74.86,0,74.86Z" fill="#d4d2d3"/><path d="m108.23,98.51h179.88c25.67,0,46.67,21,46.67,46.67v137.81c0,25.67-21,46.67-46.67,46.67H108.23c-25.67,0-46.67-21-46.67-46.67v-137.81c0-25.67,21-46.67,46.67-46.67Zm-21.53,176.59c0,13.14,10.75,23.89,23.89,23.89h175.17c13.14,0,23.89-10.75,23.89-23.89v-122.01c0-13.14-10.75-23.89-23.89-23.89H110.58c-13.14,0-23.89,10.75-23.89,23.89v122.01Z" fill="#eae9ea"/><circle cx="198.08" cy="16.75" r="16.75" fill="#60abde"/><circle cx="168.4" cy="247.99" r="8.11" fill="#60abde"/><path d="m166.23,234.24c-1.45,0-2.63-1.3-2.63-2.9h0c0-3.37.42-6.3,1.26-8.82.84-2.51,1.92-4.79,3.24-6.82,1.31-2.03,2.69-4.01,4.13-5.95,2.31-3.13,4.14-5.85,5.47-8.15,1.33-2.3,2-5.08,2-8.33,0-2.75-.57-5-1.71-6.76-1.14-1.76-2.6-3.06-4.37-3.92-1.77-.85-3.6-1.28-5.5-1.28-2.63,0-5.06.42-7.29,1.25-1.05.39-2.07.84-3.07,1.33-1.61.8-3.45-.41-3.64-2.34l-.34-3.34c-.12-1.19.44-2.34,1.4-2.9,1.71-1.01,3.61-1.87,5.69-2.57,2.75-.93,5.97-1.39,9.65-1.39,4.38,0,8.07.96,11.05,2.87,2.98,1.91,5.23,4.43,6.76,7.54,1.53,3.11,2.29,6.49,2.29,10.12,0,3.02-.44,5.69-1.32,8.01-.88,2.32-2,4.47-3.37,6.44-1.37,1.97-2.79,3.97-4.26,5.98-2.11,2.82-4,5.64-5.68,8.44-1.68,2.8-2.53,6.1-2.53,9.89v.7c0,1.6-1.18,2.9-2.63,2.9h-4.63Z" fill="#60abde"/><circle cx="226.1" cy="248.35" r="8.11" fill="#60abde"/><path d="m223.7,234.24c-1.45,0-2.63-1.3-2.63-2.9h0c0-3.37.42-6.3,1.26-8.82.84-2.51,1.92-4.79,3.24-6.82,1.31-2.03,2.69-4.01,4.13-5.95,2.31-3.13,4.14-5.85,5.47-8.15,1.33-2.3,2-5.08,2-8.33,0-2.75-.57-5-1.71-6.76-1.14-1.76-2.6-3.06-4.37-3.92-1.77-.85-3.6-1.28-5.5-1.28-2.63,0-5.06.42-7.29,1.25-1.05.39-2.07.84-3.07,1.33-1.61.8-3.45-.41-3.64-2.34l-.34-3.34c-.12-1.19.44-2.34,1.4-2.9,1.71-1.01,3.61-1.87,5.69-2.57,2.75-.93,5.97-1.39,9.65-1.39,4.38,0,8.07.96,11.05,2.87,2.98,1.91,5.23,4.43,6.76,7.54,1.53,3.11,2.29,6.49,2.29,10.12,0,3.02-.44,5.69-1.32,8.01-.88,2.32-2,4.47-3.37,6.44-1.37,1.97-2.79,3.97-4.26,5.98-2.11,2.82-4,5.64-5.68,8.44-1.68,2.8-2.53,6.1-2.53,9.89v.7c0,1.6-1.18,2.9-2.63,2.9h-4.63Z" fill="#60abde"/></svg>