<?xml version="1.0" encoding="UTF-8"?><svg id="Layer_1" xmlns="http://www.w3.org/2000/svg" viewBox="0 0 396.15 659.76"><rect x="78.62" y="122.7" width="239.1" height="186.17" fill="#302f44"/><path d="m396.15,554.09c0-140.89-88.68-255.11-198.08-255.11S0,413.2,0,554.09s396.15,140.89,396.15,0Z" fill="#eae9ea"/><path d="m344.9,550.85c1.94-139.96-57.34-227.19-147.64-227.11-90.46.08-152.11,98.92-147.64,227.11,4.37,125.35,293.55,125.41,295.29,0Z" fill="#d4d2d3"/><rect x="102.91" y="314.44" width="189.17" height="24.85" rx="5.75" ry="5.75" fill="#444545" opacity=".36"/><polygon points="198.35 2.57 198.35 0 198.21 1.29 198.08 0 198.08 2.57 186.91 108.49 198.08 108.49 198.35 108.49 209.51 108.49 198.35 2.57" fill="#d4d2d3"/><path d="m66.26,244.89c-16.48,0-29.83-16.76-29.83-37.43s13.36-37.43,29.83-37.43,16.48,74.86,0,74.86Z" fill="#d4d2d3"/><path d="m288.11,98.51H108.23c-25.67,0-46.67,21-46.67,46.67v137.81c0,25.67,21,46.67,46.67,46.67h179.88c25.67,0,46.67-21,46.67-46.67v-137.81c0-25.67-21-46.67-46.67-46.67Zm21.53,176.59c0,13.14-10.75,23.89-23.89,23.89H110.58c-13.14,0-23.89-10.75-23.89-23.89v-122.01c0-13.14,10.75-23.89,23.89-23.89h175.17c13.14,0,23.89,10.75,23.89,23.89v122.01Z" fill="#eae9ea"/><path d="m330.08,244.89c16.48,0,29.83-16.76,29.83-37.43s-13.36-37.43-29.83-37.43-16.48,74.86,0,74.86Z" fill="#d4d2d3"/><path d="m108.23,98.51h179.88c25.67,0,46.67,21,46.67,46.67v137.81c0,25.67-21,46.67-46.67,46.67H108.23c-25.67,0-46.67-21-46.67-46.67v-137.81c0-25.67,21-46.67,46.67-46.67Zm-21.53,176.59c0,13.14,10.75,23.89,23.89,23.89h175.17c13.14,0,23.89-10.75,23.89-23.89v-122.01c0-13.14-10.75-23.89-23.89-23.89H110.58c-13.14,0-23.89,10.75-23.89,23.89v122.01Z" fill="#eae9ea"/><rect x="142.24" y="238.57" width="112.6" height="5" rx="2.5" ry="2.5" fill="#848484"/><rect x="142.24" y="197.8" width="40" height="5" rx="2.5" ry="2.5" fill="#848484"/><rect x="214.84" y="197.8" width="40" height="5" rx="2.5" ry="2.5" fill="#848484"/><path d="m242.48,193.41l10.91-16.42.4,1.62h-10.73v-2.84h14.69l-10.91,16.42-.4-1.62h11.12v2.84h-15.08Z" fill="#848484"/><path d="m254.67,185.84l13.81-20.79.5,2.05h-13.58v-3.6h18.6l-13.81,20.79-.5-2.05h14.09v3.6h-19.1Z" fill="#848484"/><path d="m269.24,178.85l17.18-25.85.62,2.55h-16.89v-4.48h23.13l-17.18,25.85-.62-2.55h17.52v4.48h-23.75Z" fill="#848484"/><circle cx="198.08" cy="16.75" r="16.75" fill="#848484"/></svg>