<?xml version="1.0" encoding="UTF-8"?><svg id="Layer_1" xmlns="http://www.w3.org/2000/svg" viewBox="0 0 396.15 659.76"><rect x="78.62" y="122.7" width="239.1" height="186.17" fill="#302f44"/><path d="m396.15,554.09c0-140.89-88.68-255.11-198.08-255.11S0,413.2,0,554.09s396.15,140.89,396.15,0Z" fill="#eae9ea"/><path d="m344.9,550.85c1.94-139.96-57.34-227.19-147.64-227.11-90.46.08-152.11,98.92-147.64,227.11,4.37,125.35,293.55,125.41,295.29,0Z" fill="#d4d2d3"/><rect x="102.91" y="314.44" width="189.17" height="24.85" rx="5.75" ry="5.75" fill="#444545" opacity=".36"/><polygon points="198.35 2.57 198.35 0 198.21 1.29 198.08 0 198.08 2.57 186.91 108.49 198.08 108.49 198.35 108.49 209.51 108.49 198.35 2.57" fill="#d4d2d3"/><path d="m66.26,244.89c-16.48,0-29.83-16.76-29.83-37.43s13.36-37.43,29.83-37.43,16.48,74.86,0,74.86Z" fill="#d4d2d3"/><path d="m288.11,98.51H108.23c-25.67,0-46.67,21-46.67,46.67v137.81c0,25.67,21,46.67,46.67,46.67h179.88c25.67,0,46.67-21,46.67-46.67v-137.81c0-25.67-21-46.67-46.67-46.67Zm21.53,176.59c0,13.14-10.75,23.89-23.89,23.89H110.58c-13.14,0-23.89-10.75-23.89-23.89v-122.01c0-13.14,10.75-23.89,23.89-23.89h175.17c13.14,0,23.89,10.75,23.89,23.89v122.01Z" fill="#eae9ea"/><path d="m330.08,244.89c16.48,0,29.83-16.76,29.83-37.43s-13.36-37.43-29.83-37.43-16.48,74.86,0,74.86Z" fill="#d4d2d3"/><path d="m108.23,98.51h179.88c25.67,0,46.67,21,46.67,46.67v137.81c0,25.67-21,46.67-46.67,46.67H108.23c-25.67,0-46.67-21-46.67-46.67v-137.81c0-25.67,21-46.67,46.67-46.67Zm-21.53,176.59c0,13.14,10.75,23.89,23.89,23.89h175.17c13.14,0,23.89-10.75,23.89-23.89v-122.01c0-13.14-10.75-23.89-23.89-23.89H110.58c-13.14,0-23.89,10.75-23.89,23.89v122.01Z" fill="#eae9ea"/><path d="m197.21,257.42c-4,0-8,.01-12.01,0-1.77,0-2.8-1.82-1.9-3.31.49-.8,1.25-1.07,2.16-1.07,5.69,0,11.39,0,17.08,0,2.18,0,4.36,0,6.54,0,1.35,0,2.33.9,2.37,2.14.03,1.26-.92,2.24-2.23,2.24-4,0-8,0-12.01,0Z" fill="#f5cc24"/><path d="m197.18,264.23c-2.67,0-5.33,0-8,0-1.24,0-2.16-.72-2.32-1.78-.22-1.39.71-2.53,2.11-2.61.07,0,.15,0,.23,0,5.35,0,10.7,0,16.05,0,1.57,0,2.57,1.14,2.32,2.62-.15.86-.85,1.57-1.72,1.71-.26.04-.52.05-.78.05-2.63,0-5.26,0-7.88,0Z" fill="#f5cc24"/><path d="m232.34,191.3c-.97-5.2-3.03-9.93-6.23-14.12-5.9-7.72-13.69-12.31-23.28-13.86-4.54-.73-9.06-.57-13.55.42-5.68,1.25-10.84,3.67-15.26,7.47-9.43,8.1-13.64,18.37-12.19,30.75.76,6.51,3.37,12.38,7.29,17.64,2.11,2.83,4.3,5.59,6.22,8.55,1.21,1.88,2.21,3.84,2.47,6.1.18,1.63.19,3.26.21,4.9.02,1.47.1,2.93.37,4.37.23,1.27.63,2.47,1.36,3.54,1.33,1.93,3.25,2.71,5.52,2.72,3.98.02,7.97,0,11.95,0,3.98,0,7.97,0,11.95,0,3.02,0,5.18-1.44,6.28-4.15.42-1.03.64-2.11.77-3.22.27-2.26.19-4.54.3-6.81.09-2.07.6-4,1.61-5.8,1.53-2.75,3.41-5.25,5.33-7.73,2.33-3,4.51-6.09,6.07-9.57,3.05-6.79,4.2-13.82,2.82-21.19Zm-3.87,7.75c-.42,7.02-3.04,13.2-7.3,18.74-1.97,2.56-3.89,5.15-5.69,7.83-2.31,3.44-3.48,7.19-3.42,11.34.02,1.78,0,3.57-.26,5.34-.08.54-.2,1.07-.39,1.58-.41,1.08-.99,1.48-2.19,1.49-2.71.01-5.41,0-8.12,0-1.3,0-2.59,0-3.89,0-3.87,0-7.74,0-11.61,0-1.77,0-2.38-.48-2.79-2.2-.27-1.1-.34-2.23-.38-3.35-.06-1.9-.05-3.8-.21-5.69-.27-3.09-1.52-5.82-3.19-8.39-1.97-3.04-4.22-5.89-6.38-8.79-3.4-4.55-5.66-9.62-6.42-15.24-1.32-9.81,1.62-18.29,8.58-25.31,4.57-4.61,10.13-7.45,16.5-8.61,13.43-2.45,26.83,3.58,33.46,15.35,2.78,4.93,4.03,10.25,3.7,15.9Z" fill="#f5cc24"/><path d="m196.06,174.91c5.15.29,10.06,1.46,14.57,4.03,6.42,3.65,10.61,9.09,12.71,16.16.21.72.39,1.45.56,2.18.3,1.32-.41,2.49-1.66,2.74-1.26.25-2.36-.54-2.64-1.83-1.11-5.13-3.52-9.51-7.54-12.93-3.29-2.8-7.11-4.47-11.32-5.31-2.11-.42-4.23-.6-6.38-.64-1.26-.02-2.2-.93-2.23-2.14-.02-1.22.93-2.21,2.19-2.25.58-.02,1.16,0,1.75,0Z" fill="#f5cc24"/><circle cx="198.08" cy="16.75" r="16.75" fill="#f5cc24"/></svg>